<?xml version="1.0" standalone="no"?>
<!DOCTYPE svg PUBLIC "-//W3C//DTD SVG 20010904//EN"
 "http://www.w3.org/TR/2001/REC-SVG-20010904/DTD/svg10.dtd">
<svg version="1.0" xmlns="http://www.w3.org/2000/svg"
 width="700.000000pt" height="700.000000pt" viewBox="0 0 700.000000 700.000000"
 preserveAspectRatio="xMidYMid meet">
<metadata>
Created by potrace 1.11, written by Peter Selinger 2001-2013
</metadata>
<g transform="translate(0.000000,700.000000) scale(0.100000,-0.100000)"
fill="#000000" stroke="none">
<path d="M3821 5267 c-91 -190 -149 -332 -156 -378 -4 -24 -18 -98 -31 -164
-14 -66 -27 -131 -30 -145 -2 -14 -9 -47 -14 -75 -6 -27 -12 -61 -15 -75 -4
-22 -51 -254 -61 -305 -2 -11 -6 -31 -9 -45 -7 -34 -12 -62 -30 -150 -8 -41
-17 -86 -20 -100 -3 -14 -12 -59 -20 -100 -8 -41 -17 -84 -19 -95 -2 -11 -32
-157 -66 -325 -34 -168 -63 -316 -66 -330 -2 -14 -13 -68 -24 -120 -10 -52
-21 -106 -24 -120 -4 -23 -97 -487 -114 -570 -7 -33 -8 -336 -2 -478 2 -51 5
-60 16 -51 8 6 14 15 14 20 0 4 17 45 39 91 137 297 132 277 247 853 58 292
107 541 110 555 2 14 7 36 10 50 3 14 8 36 10 50 2 14 7 36 10 50 3 14 8 36
10 50 3 14 31 158 64 320 33 162 61 306 64 320 2 14 29 149 60 300 68 342 65
325 71 358 3 15 15 70 26 122 16 72 21 128 20 230 -1 135 -10 363 -15 367 -1
1 -26 -48 -55 -110z"/>
<path d="M2320 4974 c-19 -14 -46 -32 -60 -42 -121 -83 -314 -240 -355 -288
-42 -49 -228 -263 -475 -544 -31 -36 -90 -103 -131 -150 -40 -47 -88 -101
-105 -120 -17 -19 -75 -84 -128 -145 l-96 -110 0 -75 c0 -63 3 -79 23 -101 12
-14 47 -55 78 -90 31 -35 96 -109 144 -164 48 -55 102 -116 119 -135 17 -19
60 -69 96 -110 35 -41 71 -82 80 -91 8 -9 35 -40 59 -69 25 -29 50 -58 55 -64
6 -6 40 -45 76 -86 36 -41 67 -77 70 -80 7 -7 72 -81 139 -158 30 -34 95 -92
144 -129 131 -100 301 -221 305 -218 4 4 -75 154 -166 315 -52 91 -134 203
-192 260 -3 3 -34 39 -70 80 -35 41 -71 82 -80 91 -8 9 -26 29 -39 45 -38 45
-318 366 -356 408 -16 17 -165 188 -194 221 -14 17 -34 41 -45 53 -21 24 -31
9 125 187 15 16 80 91 145 165 64 74 143 164 174 200 32 36 93 106 136 155 43
50 81 92 84 95 3 3 32 36 65 75 33 38 85 97 116 130 30 34 73 90 94 125 62
106 208 381 204 384 -2 2 -20 -7 -39 -20z"/>
<path d="M4640 4997 c0 -5 66 -133 120 -232 82 -153 130 -223 217 -321 53 -60
110 -125 127 -144 42 -47 165 -187 197 -225 32 -36 191 -218 228 -260 15 -16
58 -66 96 -110 38 -44 84 -96 101 -115 18 -19 42 -48 54 -63 24 -31 25 -28
-36 -97 -18 -19 -193 -219 -389 -445 -197 -225 -383 -438 -414 -473 -31 -35
-80 -105 -110 -155 -57 -98 -191 -346 -191 -353 0 -22 395 283 452 349 29 34
67 77 85 96 18 18 46 51 64 72 34 42 57 69 97 114 15 17 122 138 237 270 115
132 222 254 236 270 15 17 71 81 125 142 l99 113 -2 62 c-1 35 -2 68 -2 74 -1
11 -11 23 -69 89 -15 17 -74 84 -132 150 -58 66 -107 122 -110 125 -3 3 -50
57 -105 120 -115 133 -135 155 -201 230 -27 31 -74 85 -105 120 -31 36 -92
106 -135 155 -44 50 -91 104 -105 122 -32 38 -429 334 -429 320z"/>
</g>
</svg>
